<?xml version="1.0" encoding="UTF-8"?>
<svg version="1.1" xmlns="http://www.w3.org/2000/svg" width="1120" height="630">
<path d="M0 0 C369.6 0 739.2 0 1120 0 C1120 207.9 1120 415.8 1120 630 C750.4 630 380.8 630 0 630 C0 422.1 0 214.2 0 0 Z " fill="#FEFEFE" transform="translate(0,0)"/>
<path d="M0 0 C9.7453125 -0.12375 9.7453125 -0.12375 19.6875 -0.25 C21.73026123 -0.28641602 23.77302246 -0.32283203 25.87768555 -0.36035156 C27.50568593 -0.37203937 29.13369805 -0.38223098 30.76171875 -0.390625 C31.59981079 -0.41108887 32.43790283 -0.43155273 33.3013916 -0.45263672 C37.36415578 -0.45505683 39.47147325 -0.32202083 43.01489258 1.83691406 C47.65888442 6.89727168 46.3040414 14.47059145 46.375 20.9375 C46.43107422 22.87012695 46.43107422 22.87012695 46.48828125 24.84179688 C46.49988281 26.07865234 46.51148438 27.31550781 46.5234375 28.58984375 C46.5531665 30.28935181 46.5531665 30.28935181 46.58349609 32.02319336 C46 35 46 35 43.86694336 37.3762207 C40.47698818 39.29622342 38.48072541 39.46408958 34.60546875 39.390625 C33.40341797 39.37773437 32.20136719 39.36484375 30.96289062 39.3515625 C29.71701172 39.31804687 28.47113281 39.28453125 27.1875 39.25 C25.92228516 39.23195313 24.65707031 39.21390625 23.35351562 39.1953125 C20.23535263 39.14824589 17.11757962 39.07650502 14 39 C14 47.25 14 55.5 14 64 C9.38 64 4.76 64 0 64 C0 42.88 0 21.76 0 0 Z " fill="#177AB2" transform="translate(359,308)"/>
<path d="M0 0 C11.88 0 23.76 0 36 0 C36 0.66 36 1.32 36 2 C36.928125 2.4021875 36.928125 2.4021875 37.875 2.8125 C40 4 40 4 42 7 C42.20789293 9.69909706 42.30403472 12.29245675 42.30078125 14.9921875 C42.30506638 15.77514191 42.3093515 16.55809631 42.31376648 17.36477661 C42.31950706 19.02068109 42.32001203 20.67661079 42.31567383 22.33251953 C42.31252017 24.8588397 42.33595305 27.3839814 42.36132812 29.91015625 C42.36360187 31.52083186 42.36430426 33.13151061 42.36328125 34.7421875 C42.372491 35.49442596 42.38170074 36.24666443 42.39118958 37.021698 C42.35178155 41.51803598 41.87849082 44.48559666 39 48 C34.23095109 51.51907779 27.40683636 50.37189826 21.72827148 50.37060547 C19.57260159 50.3749795 17.41897995 50.4113243 15.26367188 50.44921875 C13.88542363 50.4550876 12.50716571 50.45905654 11.12890625 50.4609375 C9.25827515 50.47326416 9.25827515 50.47326416 7.34985352 50.48583984 C3.40728918 49.91403728 1.79275987 48.78605802 -1 46 C-3.90627585 40.32584239 -3.98628116 32.98112031 -2.46484375 26.83984375 C-1.02294414 23.12872507 0.61151556 21.01029916 4 19 C6.65722656 18.65942383 6.65722656 18.65942383 9.640625 18.70703125 C11.24550781 18.7215332 11.24550781 18.7215332 12.8828125 18.73632812 C13.99398437 18.76146484 15.10515625 18.78660156 16.25 18.8125 C17.93996094 18.83280273 17.93996094 18.83280273 19.6640625 18.85351562 C22.44319264 18.88884355 25.22135363 18.9381748 28 19 C27.67 17.68 27.34 16.36 27 15 C18.09 14.67 9.18 14.34 0 14 C0 9.38 0 4.76 0 0 Z " fill="#197BB3" transform="translate(624,322)"/>
<path d="M0 0 C4.95 0 9.9 0 15 0 C15 4.95 15 9.9 15 15 C17.26037109 14.91298828 17.26037109 14.91298828 19.56640625 14.82421875 C21.56507307 14.77730169 23.56377355 14.73180363 25.5625 14.6875 C27.0484668 14.6246582 27.0484668 14.6246582 28.56445312 14.56054688 C35.42748523 14.44654302 38.94300239 15.25524654 44 20 C45.73482892 22.83327128 46.24744152 24.91447405 46.22705078 28.21777344 C46.22689972 29.03832214 46.22674866 29.85887085 46.22659302 30.70428467 C46.21627045 31.58046448 46.20594788 32.45664429 46.1953125 33.359375 C46.1924826 34.26375305 46.18965271 35.1681311 46.18673706 36.09991455 C46.17555782 38.98341195 46.15045733 41.86659675 46.125 44.75 C46.11496728 46.70702676 46.10584194 48.66405839 46.09765625 50.62109375 C46.07562585 55.41418262 46.04111144 60.20703834 46 65 C41.05 65 36.1 65 31 65 C31 53.78 31 42.56 31 31 C25.72 31 20.44 31 15 31 C15 42.22 15 53.44 15 65 C10.05 65 5.1 65 0 65 C0 43.55 0 22.1 0 0 Z " fill="#2180B5" transform="translate(532,307)"/>
<path d="M0 0 C4.95 0 9.9 0 15 0 C15 4.95 15 9.9 15 15 C16.51851563 14.96519531 18.03703125 14.93039062 19.6015625 14.89453125 C21.6093639 14.8663845 23.61717731 14.83908529 25.625 14.8125 C26.62402344 14.78736328 27.62304688 14.76222656 28.65234375 14.73632812 C34.13326459 14.68188189 38.39768247 14.6535199 43 18 C46.69672175 22.5664413 46.39246451 26.86006312 46.29296875 32.45703125 C46.28872391 33.35999435 46.28447906 34.26295746 46.28010559 35.19328308 C46.26336311 38.0666635 46.22571916 40.93933291 46.1875 43.8125 C46.17244743 45.7649638 46.15876003 47.71743864 46.14648438 49.66992188 C46.11347408 54.44688697 46.06172235 59.22332309 46 64 C41.05 64 36.1 64 31 64 C31 53.11 31 42.22 31 31 C25.72 30.67 20.44 30.34 15 30 C15 41.22 15 52.44 15 64 C10.05 64 5.1 64 0 64 C0 42.88 0 21.76 0 0 Z " fill="#1E7EB4" transform="translate(410,308)"/>
<path d="M0 0 C1.60279192 0.00015914 3.20558896 0.00585476 4.80834961 0.01586914 C5.65038437 0.01728409 6.49241913 0.01869904 7.35997009 0.02015686 C10.06024671 0.02577276 12.76044163 0.03832791 15.46069336 0.05102539 C17.28686404 0.05603834 19.11303602 0.06060161 20.93920898 0.06469727 C25.42556878 0.07574735 29.9118672 0.0930226 34.39819336 0.11352539 C34.39819336 4.73352539 34.39819336 9.35352539 34.39819336 14.11352539 C25.15819336 14.44352539 15.91819336 14.77352539 6.39819336 15.11352539 C6.06819336 15.77352539 5.73819336 16.43352539 5.39819336 17.11352539 C6.03321777 17.09781494 6.66824219 17.08210449 7.32250977 17.06591797 C10.22264566 17.00323949 13.1226386 16.96443122 16.02319336 16.92602539 C17.0222168 16.90088867 18.02124023 16.87575195 19.05053711 16.84985352 C24.60237397 16.79470282 28.62563301 16.9240959 33.39819336 20.11352539 C36.97292606 23.68825809 36.48539235 29.2590952 36.64819336 34.11352539 C36.59117052 39.46552659 35.49408192 43.5513272 32.0320282 47.78364563 C29.13353142 50.14291238 25.36733128 49.47434673 21.79272461 49.40649414 C20.95351974 49.4022493 20.11431488 49.39800446 19.24967957 49.39363098 C16.56969091 49.37684003 13.89045466 49.33918769 11.21069336 49.30102539 C9.39364693 49.28597906 7.57658871 49.27229057 5.75952148 49.26000977 C1.3054556 49.22693521 -3.14804796 49.17515052 -7.60180664 49.11352539 C-7.60180664 44.49352539 -7.60180664 39.87352539 -7.60180664 35.11352539 C1.96819336 35.11352539 11.53819336 35.11352539 21.39819336 35.11352539 C21.39819336 33.79352539 21.39819336 32.47352539 21.39819336 31.11352539 C20.69734619 31.13447266 19.99649902 31.15541992 19.27441406 31.17700195 C16.08665416 31.26035587 12.89912384 31.31224678 9.71069336 31.36352539 C8.60790039 31.39704102 7.50510742 31.43055664 6.36889648 31.46508789 C-1.811645 31.5639464 -1.811645 31.5639464 -5.80883789 29.28540039 C-9.17718164 25.20522801 -8.84996126 20.84999276 -8.91430664 15.80102539 C-8.94331055 15.05401367 -8.97231445 14.30700195 -9.00219727 13.53735352 C-9.06266647 8.23932134 -8.04188097 5.35606447 -4.60180664 1.11352539 C-3.60180664 0.11352539 -3.60180664 0.11352539 0 0 Z " fill="#197BB3" transform="translate(489.601806640625,322.886474609375)"/>
<path d="M0 0 C0.99 0.66 1.98 1.32 3 2 C2.47462276 7.0302076 1.89405214 12.01885239 1 17 C1.73605469 16.7834375 2.47210938 16.566875 3.23046875 16.34375 C4.69419922 15.92609375 4.69419922 15.92609375 6.1875 15.5 C7.15042969 15.2215625 8.11335937 14.943125 9.10546875 14.65625 C11.85345876 14.03322392 14.19598416 13.87697188 17 14 C17 18 17 18 15.1875 20 C10.60385772 22.87601084 4.5302099 26 -1 26 C-0.34 27.98 0.32 29.96 1 32 C3.64 32.33 6.28 32.66 9 33 C9 33.99 9 34.98 9 36 C5.58807908 38.55894069 1.89433748 39.81284113 -2.1328125 41.05859375 C-6.11627212 43.06699075 -7.56462539 47.03931918 -9.3125 50.9375 C-12.33626604 57.07529375 -16.19122266 60.93642992 -22.7421875 63.4921875 C-28.97237674 64.89344114 -36.05934563 65.39899056 -41.8984375 62.62109375 C-45.15779127 58.55598896 -44.65230032 54.67860161 -44.5 49.625 C-44.50257813 48.69171875 -44.50515625 47.7584375 -44.5078125 46.796875 C-44.43128384 41.39395166 -43.83761975 37.72246206 -41 33 C-40.24924532 31.2172715 -39.51829755 29.42600064 -38.8125 27.625 C-38.46832031 26.75101562 -38.12414062 25.87703125 -37.76953125 24.9765625 C-37.51558594 24.32429688 -37.26164062 23.67203125 -37 23 C-36.01 23 -35.02 23 -34 23 C-34.33 24.32 -34.66 25.64 -35 27 C-26.22179964 23.68887369 -26.22179964 23.68887369 -20.4375 16.8125 C-20.20933594 16.15894531 -19.98117187 15.50539063 -19.74609375 14.83203125 C-18.85805889 12.65146397 -17.81098322 11.48841624 -16 10 C-15.34 10 -14.68 10 -14 10 C-13.67 12.97 -13.34 15.94 -13 19 C-10.525 19.99 -10.525 19.99 -8 21 C-7.96132813 19.93072266 -7.96132813 19.93072266 -7.921875 18.83984375 C-7.4818072 11.40869886 -6.33698858 6.69452307 -1.25 1.0625 C-0.63125 0.5365625 -0.63125 0.5365625 0 0 Z " fill="#F69506" transform="translate(504,251)"/>
<path d="M0 0 C2.15356375 -0.00435895 4.30505272 -0.0406432 6.45825195 -0.07861328 C7.83780228 -0.08448486 9.21736229 -0.08845197 10.59692383 -0.09033203 C12.46924683 -0.10265869 12.46924683 -0.10265869 14.37939453 -0.11523438 C18.53434023 0.46495943 20.64987788 1.70235382 23.85864258 4.37060547 C25.59603636 7.19686292 26.10604373 9.29161816 26.08569336 12.58837891 C26.0855423 13.40892761 26.08539124 14.22947632 26.0852356 15.07489014 C26.07491302 15.95106995 26.06459045 16.82724976 26.05395508 17.72998047 C26.05112518 18.63435852 26.04829529 19.53873657 26.04537964 20.47052002 C26.0342004 23.35401742 26.00909991 26.23720222 25.98364258 29.12060547 C25.97360986 31.07763223 25.96448452 33.03466386 25.95629883 34.99169922 C25.93426843 39.78478809 25.89975402 44.57764381 25.85864258 49.37060547 C20.90864258 49.37060547 15.95864258 49.37060547 10.85864258 49.37060547 C10.52864258 38.48060547 10.19864258 27.59060547 9.85864258 16.37060547 C2.92864258 15.87560547 2.92864258 15.87560547 -4.14135742 15.37060547 C-4.14135742 26.59060547 -4.14135742 37.81060547 -4.14135742 49.37060547 C-9.42135742 49.37060547 -14.70135742 49.37060547 -20.14135742 49.37060547 C-20.24049026 43.64148975 -20.31295082 37.91287708 -20.36108398 32.18310547 C-20.38115648 30.23542581 -20.40842074 28.2878061 -20.44311523 26.34033203 C-20.49182594 23.53516826 -20.51436983 20.7308036 -20.53198242 17.92529297 C-20.55262756 17.05943573 -20.57327271 16.19357849 -20.59454346 15.30148315 C-20.59655833 9.83022279 -19.83259795 6.68427414 -16.14135742 2.37060547 C-11.29944491 -0.8573362 -5.66572177 -0.00128606 0 0 Z " fill="#1D7EB4" transform="translate(690.141357421875,322.62939453125)"/>
<path d="M0 0 C4.62 0 9.24 0 14 0 C14 9.24 14 18.48 14 28 C14.66 28 15.32 28 16 28 C16.226875 27.34 16.45375 26.68 16.6875 26 C17.120625 25.01 17.55375 24.02 18 23 C18.20238281 22.30261719 18.40476562 21.60523438 18.61328125 20.88671875 C19.7558801 18.05287227 20.48643455 16.80292391 23 15 C28.91142254 13.94216649 35.05004273 14.55514338 41 15 C39.62833388 17.95056237 38.03565564 20.40935442 36.03125 22.96875 C35.46019531 23.70480469 34.88914062 24.44085938 34.30078125 25.19921875 C33.10026042 26.73307292 31.89973958 28.26692708 30.69921875 29.80078125 C30.12816406 30.53683594 29.55710937 31.27289063 28.96875 32.03125 C28.44732422 32.69705078 27.92589844 33.36285156 27.38867188 34.04882812 C26.02560289 35.96402633 24.98948001 37.87155018 24 40 C24.54527344 40.65484375 25.09054687 41.3096875 25.65234375 41.984375 C42 61.76923077 42 61.76923077 42 64 C25.9297597 65.53049908 25.9297597 65.53049908 21.28125 61.84375 C19.54663255 59.28592426 18.19046346 56.84777533 17 54 C16.67 53.34 16.34 52.68 16 52 C15.67 55.96 15.34 59.92 15 64 C10.05 64 5.1 64 0 64 C0 42.88 0 21.76 0 0 Z " fill="#1B7DB3" transform="translate(720,308)"/>
<path d="M0 0 C14.52 0 29.04 0 44 0 C44 5.28 44 10.56 44 16 C39.38 16 34.76 16 30 16 C30 31.84 30 47.68 30 64 C25.05 64 20.1 64 15 64 C15 48.16 15 32.32 15 16 C10.05 16 5.1 16 0 16 C0 10.72 0 5.44 0 0 Z " fill="#1B7DB3" transform="translate(576,308)"/>
<path d="M0 0 C4.62 0 9.24 0 14 0 C14 16.17 14 32.34 14 49 C9.38 49 4.76 49 0 49 C0 32.83 0 16.66 0 0 Z " fill="#1B7CB3" transform="translate(462,323)"/>
<path d="M0 0 C2.62527189 -0.05382106 5.24944713 -0.09358313 7.875 -0.125 C8.62136719 -0.14175781 9.36773437 -0.15851563 10.13671875 -0.17578125 C12.09194461 -0.1933959 14.04742021 -0.10320189 16 0 C18 2 18 2 18.25 4.5 C18 7 18 7 16 9 C13.43707683 9.17163731 10.99654143 9.23264558 8.4375 9.1875 C7.73947266 9.18685547 7.04144531 9.18621094 6.32226562 9.18554688 C1.14031158 9.14031158 1.14031158 9.14031158 0 8 C-0.14115161 5.32941149 -0.04247107 2.67567762 0 0 Z " fill="#EEF5F9" transform="translate(373,324)"/>
<path d="M0 0 C0.7734375 -0.00515625 1.546875 -0.0103125 2.34375 -0.015625 C4.5 0.25 4.5 0.25 7.5 2.25 C7.5 3.57 7.5 4.89 7.5 6.25 C2.55 6.25 -2.4 6.25 -7.5 6.25 C-7.5 4.93 -7.5 3.61 -7.5 2.25 C-4.377998 0.16866533 -3.56733011 -0.0237822 0 0 Z " fill="#E7F1F7" transform="translate(644.5,351.75)"/>
</svg>
