<?xml version="1.0" encoding="UTF-8"?>
<svg version="1.1" xmlns="http://www.w3.org/2000/svg" width="981" height="628">
<path d="M0 0 C323.73 0 647.46 0 981 0 C981 207.24 981 414.48 981 628 C657.27 628 333.54 628 0 628 C0 420.76 0 213.52 0 0 Z " fill="#FEFEFE" transform="translate(0,0)"/>
<path d="M0 0 C100.98 0 201.96 0 306 0 C306 161.8563027 306 161.8563027 298.375 192.9375 C298.11485107 193.99888184 297.85470215 195.06026367 297.58666992 196.15380859 C290.7482893 223.27878361 280.57217459 248.33872223 264 271 C263.55720703 271.61101562 263.11441406 272.22203125 262.65820312 272.8515625 C251.33371496 288.3141719 237.87494969 301.96254071 223 314 C221.82016637 314.96987434 220.64048064 315.93992864 219.4609375 316.91015625 C209.58077657 324.97477762 199.31429453 332.50402468 189 340 C188.22688477 340.56396484 187.45376953 341.12792969 186.65722656 341.70898438 C181.45814689 345.50094338 176.23707342 349.26072725 171 353 C170.24928223 353.53915039 169.49856445 354.07830078 168.72509766 354.63378906 C166.53231997 356.20390286 164.33039706 357.76017833 162.125 359.3125 C161.4647583 359.7871167 160.8045166 360.2617334 160.12426758 360.75073242 C156.71125603 363.12800992 155.28008588 364 151 364 C148.43669739 362.45023314 146.04912929 360.8693317 143.625 359.125 C142.91891602 358.62758301 142.21283203 358.13016602 141.48535156 357.61767578 C139.31732281 356.08704554 137.15855054 354.54395631 135 353 C133.75320539 352.11894026 132.50584243 351.23868403 131.2578125 350.359375 C124.7362258 345.75024809 118.30533728 341.0296141 111.93359375 336.21484375 C109.95293334 334.71945832 107.96576261 333.23266258 105.97265625 331.75390625 C99.15103693 326.6881735 92.54498453 321.41653892 86 316 C84.62328125 314.88625 84.62328125 314.88625 83.21875 313.75 C74.89580519 307.01683117 66.66215699 300.28348693 59.7578125 292.0625 C58.5401596 290.63378727 57.28141521 289.23947446 55.9921875 287.875 C41.25478822 272.23962299 30.39639883 253.3863374 21.79541016 233.80175781 C21.04255577 232.09639706 20.26229211 230.40321326 19.48046875 228.7109375 C-9.88800147 161.29518792 0 64.49663863 0 0 Z " fill="#65B96A" transform="translate(336,70)"/>
<path d="M0 0 C50.49 0 100.98 0 153 0 C153.061875 19.59375 153.12375 39.1875 153.1875 59.375 C153.21481201 65.46630371 153.24212402 71.55760742 153.27026367 77.83349609 C153.48425728 159.88236224 153.48425728 159.88236224 145.375 192.9375 C145.11485107 193.99888184 144.85470215 195.06026367 144.58666992 196.15380859 C137.7482893 223.27878361 127.57217459 248.33872223 111 271 C110.33581055 271.91652344 110.33581055 271.91652344 109.65820312 272.8515625 C98.33371496 288.3141719 84.87494969 301.96254071 70 314 C68.82016637 314.96987434 67.64048064 315.93992864 66.4609375 316.91015625 C56.58077657 324.97477762 46.31429453 332.50402468 36 340 C35.22688477 340.56396484 34.45376953 341.12792969 33.65722656 341.70898438 C25.49713846 347.6605607 17.29405263 353.54874058 9 359.3125 C8.32300049 359.7871167 7.64600098 360.2617334 6.94848633 360.75073242 C2.23476012 364 2.23476012 364 0 364 C-0.06960318 356.52415552 -0.12286342 349.04838127 -0.15543652 341.57227802 C-0.17107243 338.1005589 -0.19227212 334.62906197 -0.22631836 331.1574707 C-0.26524063 327.16355288 -0.27972629 323.16986737 -0.29296875 319.17578125 C-0.30845261 317.93290848 -0.32393646 316.69003571 -0.33988953 315.40950012 C-0.34011612 314.24867416 -0.34034271 313.08784821 -0.34057617 311.8918457 C-0.34723801 310.87258499 -0.35389984 309.85332428 -0.36076355 308.80317688 C0.32100101 303.50578294 3.50148719 300.25363883 7.203125 296.63671875 C8.01910156 295.83169922 8.83507812 295.02667969 9.67578125 294.19726562 C10.52527344 293.36904297 11.37476563 292.54082031 12.25 291.6875 C22.35682401 281.97765725 22.35682401 281.97765725 31 271 C29.7934375 270.62875 29.7934375 270.62875 28.5625 270.25 C25.91525853 269.32114334 23.62338522 268.34302273 21.125 267.125 C14.40544098 264.04857539 7.16391359 262.68562673 0 261 C0 255.39 0 249.78 0 244 C17.18513585 243.04527023 29.99057744 248.66038496 44 258 C44.226875 257.34 44.45375 256.68 44.6875 256 C46.40571358 252.07265467 48.66774607 248.58739822 51 245 C47.61301182 241.10801102 43.8708847 239.15059791 39.3125 236.9375 C38.64283203 236.59912109 37.97316406 236.26074219 37.28320312 235.91210938 C28.5158075 231.58284143 20.1297845 229.48635047 10.4375 228.3125 C8.92446289 228.11817383 8.92446289 228.11817383 7.38085938 227.91992188 C4.92158995 227.60522863 2.46092555 227.30146872 0 227 C0 220.73 0 214.46 0 208 C19.98460479 207.07478682 36.75234542 212.02875039 53.93115234 222.13623047 C57.2406079 224.27048864 57.2406079 224.27048864 61 225 C62.98 219.72 64.96 214.44 67 209 C65.35 208.34 63.7 207.68 62 207 C60.193228 206.096614 58.38667876 205.19276878 56.58276367 204.28369141 C38.58559543 195.35156031 19.93804967 191.66150414 0 190 C0 180.43 0 170.86 0 161 C3.58875 160.195625 3.58875 160.195625 7.25 159.375 C21.25159955 156.00551636 31.69513014 149.98994557 40.1015625 138.12109375 C47.51018705 125.94107108 49.9730531 112.36134745 47.31640625 98.41015625 C43.31361034 84.44189335 35.57261788 73.59009775 22.8515625 66.3828125 C15.49900149 62.81732401 8.05058794 60.34176466 0 59 C0 39.53 0 20.06 0 0 Z " fill="#388D3C" transform="translate(489,70)"/>
<path d="M0 0 C1.05767781 -0.00523668 2.11535561 -0.01047336 3.20508426 -0.01586872 C6.74922347 -0.03087031 10.29321831 -0.03157393 13.83738708 -0.03224182 C16.37872562 -0.03986333 18.92006185 -0.04829081 21.46139526 -0.0574646 C28.36665792 -0.07942068 35.27187057 -0.08823236 42.17716336 -0.09329104 C46.49335705 -0.09655228 50.80954186 -0.10307744 55.12573051 -0.11029243 C67.08846658 -0.12985643 79.0511944 -0.14626116 91.01394749 -0.14916897 C91.77904538 -0.14935654 92.54414327 -0.14954411 93.33242595 -0.14973736 C94.88331568 -0.1501036 96.43420542 -0.1504673 97.98509515 -0.15082847 C98.75490618 -0.15101128 99.5247172 -0.1511941 100.31785583 -0.15138245 C101.47399103 -0.15165327 101.47399103 -0.15165327 102.65348249 -0.15192956 C115.13125889 -0.15546816 127.60886238 -0.18247169 140.08657885 -0.21988034 C152.91361157 -0.25802667 165.74055864 -0.27732692 178.5676493 -0.27762848 C185.76295501 -0.27821172 192.95805455 -0.28661669 200.15330696 -0.31562614 C206.92578767 -0.34280637 213.69779273 -0.34399125 220.47033119 -0.3279705 C222.94983561 -0.32615878 225.42936363 -0.33282151 227.90881729 -0.34878922 C244.0867862 -0.4465849 257.15624607 -0.40347118 269.69065857 11.11399841 C280.89723727 24.52793352 274.49534607 39.9889321 274.49534607 58.27415466 C173.51534607 58.27415466 72.53534607 58.27415466 -31.50465393 58.27415466 C-31.50465393 14.45597284 -31.50465393 14.45597284 -23.50465393 6.27415466 C-16.00793208 0.91935334 -8.92633433 -0.02187943 0 0 Z " fill="#DFE0DF" transform="translate(367.50465393066406,11.725845336914063)"/>
<path d="M0 0 C0.87398438 0.48726562 1.74796875 0.97453125 2.6484375 1.4765625 C3.46054687 1.92257813 4.27265625 2.36859375 5.109375 2.828125 C17.17877092 10.20157848 24.81838477 20.98582443 29.0859375 34.3515625 C31.7290619 48.43821413 29.46255591 62.43325211 21.6484375 74.5390625 C20.6667582 75.86532115 19.6684777 77.1795759 18.6484375 78.4765625 C17.9059375 79.5078125 17.1634375 80.5390625 16.3984375 81.6015625 C7.13242545 91.28875691 -5.22569872 96.72053106 -18.54296875 97.71484375 C-33.54668833 98.04516898 -46.03404714 93.48246007 -57.1015625 83.2265625 C-69.19006207 70.32441392 -71.95095684 57.00038556 -71.69140625 39.95703125 C-71.41980022 33.315644 -69.81275642 28.15467303 -66.3515625 22.4765625 C-65.83207031 21.6 -65.31257813 20.7234375 -64.77734375 19.8203125 C-51.16957194 -1.24160004 -23.29909407 -10.94629354 0 0 Z " fill="#F8F9F8" transform="translate(508.3515625,133.5234375)"/>
<path d="M0 0 C35.15812918 0 35.15812918 0 42.3125 6.4375 C42.96863281 7.01371094 43.62476563 7.58992187 44.30078125 8.18359375 C48.5103177 12.68344306 48.47782015 17.0572898 48.390625 23.015625 C47.63011711 28.8259053 44.03866114 32.00871318 40 36 C40.9075 36.53625 41.815 37.0725 42.75 37.625 C46.2545479 40.04994783 48.21104236 42.00924834 50 46 C50.91676316 52.51217971 51.39902168 58.96964103 47.5 64.5625 C43.4949638 68.99562796 38.65026914 72.11657695 33 74 C22.11 74 11.22 74 0 74 C0 49.58 0 25.16 0 0 Z " fill="#7D7D7D" transform="translate(580,515)"/>
<path d="M0 0 C1.53125 0.97265625 1.53125 0.97265625 2.53125 1.97265625 C2.86125 0.98265625 3.19125 -0.00734375 3.53125 -1.02734375 C7.16125 -1.02734375 10.79125 -1.02734375 14.53125 -1.02734375 C14.630632 6.6040473 14.70296217 14.23505591 14.75097656 21.86694336 C14.77100721 24.4594581 14.79823967 27.05192813 14.83300781 29.64428711 C14.88190141 33.38536658 14.90430539 37.12584515 14.921875 40.8671875 C14.94252014 42.01347122 14.96316528 43.15975494 14.98443604 44.34077454 C14.98681266 52.99624422 13.52690025 61.24303336 8.34375 68.41015625 C1.75223191 74.41576162 -4.88196609 75.61012517 -13.65332031 75.51123047 C-19.52835249 75.23484007 -23.25959006 74.0356648 -27.46875 69.97265625 C-28.149375 69.32167969 -28.83 68.67070313 -29.53125 68 C-33.15385934 64.21465626 -33.15385934 64.21465626 -34.46875 61.97265625 C-34.29296875 59.8046875 -34.29296875 59.8046875 -33.46875 57.97265625 C-30.19400459 56.15335324 -27.18170778 55.28869034 -23.46875 55.97265625 C-22.41103261 57.60330389 -21.41601954 59.27546498 -20.46875 60.97265625 C-16.97915814 63.86403236 -13.99044596 64.45437607 -9.4609375 64.2578125 C-6.29448558 63.80457526 -4.10807664 62.75266724 -1.46875 60.97265625 C2.13212913 56.00592642 2.64545919 52.02574317 2.53125 45.97265625 C1.603125 46.61203125 0.675 47.25140625 -0.28125 47.91015625 C-6.08948634 51.66842682 -11.71269389 51.82024916 -18.46875 50.97265625 C-26.49463435 47.939163 -31.60093859 42.47929032 -35.49609375 35 C-38.5541634 27.9114791 -38.39675023 20.50401202 -35.6953125 13.30859375 C-31.77240416 5.83757723 -26.01081809 0.14925733 -17.9453125 -2.47265625 C-11.04656235 -4.01780218 -6.19942743 -3.4318259 0 0 Z " fill="#7A7A7A" transform="translate(245.46875,539.02734375)"/>
<path d="M0 0 C2.8217084 1.7435785 5.10544768 3.60154143 7.44921875 5.9453125 C7.77921875 3.9653125 8.10921875 1.9853125 8.44921875 -0.0546875 C11.41921875 -0.0546875 14.38921875 -0.0546875 17.44921875 -0.0546875 C17.55101851 7.61324669 17.62085213 15.28100521 17.66894531 22.94946289 C17.6890041 25.55564893 17.71625786 28.16179029 17.75097656 30.76782227 C17.79974505 34.52371276 17.82224592 38.2790058 17.83984375 42.03515625 C17.86048889 43.19176254 17.88113403 44.34836884 17.90240479 45.5400238 C17.90471009 53.93691745 16.11497324 59.60112 11.76171875 66.6953125 C5.09198673 73.18478149 -1.19978895 74.711551 -10.30249023 74.60693359 C-16.65730132 74.27569691 -21.04864211 72.58909197 -25.55078125 67.9453125 C-30.55078125 62.20897046 -30.55078125 62.20897046 -30.55078125 58.9453125 C-27.88204972 57.64907147 -25.9757313 56.93494786 -22.98828125 57.0078125 C-19.75324005 58.25205912 -18.61613726 60.21371262 -16.55078125 62.9453125 C-12.33934992 65.54518131 -8.36326446 65.48096281 -3.55078125 64.9453125 C1.80676971 63.02468102 4.90759091 60.02856818 7.44921875 54.9453125 C7.51917889 53.23828515 7.53362029 51.52863247 7.51171875 49.8203125 C7.50269531 48.91023437 7.49367188 48.00015625 7.484375 47.0625 C7.47277344 46.36382813 7.46117187 45.66515625 7.44921875 44.9453125 C6.54171875 45.7290625 5.63421875 46.5128125 4.69921875 47.3203125 C-0.73067769 52.00976851 -5.18439186 52.44760783 -12.2890625 52.3203125 C-18.6763929 51.58596074 -22.54041008 48.21851185 -26.86328125 43.6953125 C-32.60539912 36.41987705 -33.58882265 27.98099106 -32.55078125 18.9453125 C-30.48648153 10.31948867 -25.91286592 5.16494643 -18.92578125 0.0078125 C-12.85295043 -1.90400461 -5.98351546 -2.47404161 0 0 Z " fill="#7A7A7A" transform="translate(956.55078125,538.0546875)"/>
<path d="M0 0 C1.40894325 1.06622733 2.81020699 2.14319117 4.1875 3.25 C2.59739645 6.5773092 1.15405303 8.96151623 -1.8125 11.25 C-5.48731437 10.89031181 -7.71241005 9.78440075 -10.6875 7.6875 C-17.7222382 3.64751679 -26.08154322 4.08278232 -33.7890625 5.984375 C-42.338979 9.13570374 -47.8404275 14.20963683 -51.8984375 22.45703125 C-54.56687824 30.61060018 -53.83082057 41.3710266 -50.13671875 49.0703125 C-45.43594686 56.80786622 -40.04847034 61.28074621 -31.4375 64 C-21.25415383 64.96984249 -14.49681186 63.19742096 -5.4375 58.5 C-0.37429482 54.16010985 1.11594382 48.46466854 3.1875 42.25 C-6.0525 42.25 -15.2925 42.25 -24.8125 42.25 C-24.8125 38.29 -24.8125 34.33 -24.8125 30.25 C-19.27661467 30.22535225 -13.740761 30.20716504 -8.20483398 30.19506836 C-6.3200627 30.19002756 -4.43529535 30.18319502 -2.55053711 30.17456055 C0.15251636 30.16248383 2.85551831 30.15676932 5.55859375 30.15234375 C6.40650986 30.14718246 7.25442596 30.14202118 8.1280365 30.13670349 C10.14821068 30.13650805 12.16827934 30.18793789 14.1875 30.25 C15.98706424 32.04956424 15.44515564 34.62914212 15.5 37.0625 C15.39616765 47.59571499 12.11674657 57.21909902 5.1875 65.25 C-5.02852774 74.7242 -15.87706925 76.85979077 -29.4765625 76.58984375 C-39.23500245 76.07612946 -47.9680429 71.04356895 -54.8125 64.25 C-64.67553114 52.51818401 -67.71490948 42.52411601 -66.8125 27.25 C-65.0473041 16.44939458 -58.3914332 6.90002212 -49.8125 0.25 C-33.56467655 -9.62566002 -16.27768277 -11.30267269 0 0 Z " fill="#7B7B7B" transform="translate(70.8125,513.75)"/>
<path d="M0 0 C-0.57217713 3.98772432 -1.40621532 7.56083679 -2.875 11.3125 C-3.20242188 12.17488281 -3.52984375 13.03726563 -3.8671875 13.92578125 C-5 16 -5 16 -8 17 C-10.24520489 15.86992351 -12.30972119 14.69598763 -14.4375 13.375 C-33.66228953 1.99317175 -51.93922269 -1.06110193 -74 0 C-75.24112549 0.05800781 -75.24112549 0.05800781 -76.50732422 0.1171875 C-93.33924581 1.06291827 -111.47517616 6.29086214 -124.671875 17.2109375 C-127 19 -127 19 -130 19 C-130.81542431 16.91780951 -131.62723189 14.83420239 -132.4375 12.75 C-132.88996094 11.58984375 -133.34242188 10.4296875 -133.80859375 9.234375 C-134.70150633 6.81033692 -135.45794365 4.51713525 -136 2 C-122.82206818 -5.78426557 -109.96912547 -12.30290535 -95 -16 C-93.89785156 -16.30035156 -92.79570312 -16.60070312 -91.66015625 -16.91015625 C-59.98175878 -24.57141098 -27.55498089 -15.92627336 0 0 Z " fill="#F6F8F6" transform="translate(556,279)"/>
<path d="M0 0 C7.22443886 4.01357714 11.41752299 8.83223581 14.625 16.4375 C14.96254269 19.15190582 15.15073892 21.54516155 15.125 24.25 C15.11855469 24.95632568 15.11210937 25.66265137 15.10546875 26.39038086 C14.8114002 34.81099506 11.76876835 39.63818518 5.8125 45.3125 C-1.68622362 51.33102864 -8.86836411 52.34962317 -18.375 51.4375 C-25.60902945 50.05305643 -31.40170369 45.46473131 -35.73046875 39.6015625 C-39.8033165 32.86739546 -40.56133266 24.95696297 -38.9140625 17.29296875 C-36.28811505 9.46146665 -31.98535992 3.96660238 -24.75 -0.0625 C-15.96405091 -4.01075366 -8.75888276 -4.01178457 0 0 Z " fill="#7A7A7A" transform="translate(188.375,538.5625)"/>
<path d="M0 0 C5.93379253 4.52098478 9.41652526 10.58907294 10.4375 17.96875 C10.77869244 27.7041077 8.27405326 35.04409252 1.70703125 42.24609375 C-4.51908199 47.70635251 -11.75473634 49.13220677 -19.80859375 49.015625 C-27.20621399 48.40141477 -32.34339613 45.88070962 -37.4453125 40.5 C-43.22042135 33.31319787 -44.6705423 27.23327266 -44.4140625 18 C-43.41617668 10.01691342 -39.40330676 4.1040535 -33.171875 -0.84375 C-22.48934225 -7.78546804 -10.51911598 -6.54886598 0 0 Z " fill="#7A7A7A" transform="translate(134.0078125,541.25)"/>
<path d="M0 0 C6.93347055 3.67217144 11.28428024 8.03428961 14.1875 15.4375 C16.13394527 25.33193011 15.08436885 33.38774371 9.83984375 42.06640625 C6.09430141 47.13241097 0.73096384 49.31884539 -5.0625 51.25 C-13.33064453 51.88695336 -20.45672577 51.78052914 -27.1875 46.62109375 C-34.07663071 40.35249136 -37.16093925 33.53121492 -37.625 24.25 C-37.35371472 16.72183361 -34.47093216 11.17917425 -29.75 5.4375 C-28.863125 4.715625 -27.97625 3.99375 -27.0625 3.25 C-26.53398438 2.7859375 -26.00546875 2.321875 -25.4609375 1.84375 C-18.21463057 -3.70661275 -8.20973219 -3.44589094 0 0 Z " fill="#7B7B7B" transform="translate(707.0625,538.75)"/>
<path d="M0 0 C5.59044371 2.55002696 9.73970099 7.00279389 12.50585938 12.44628906 C13.72244882 16.22431996 13.68988842 19.79172638 13.63671875 23.71484375 C13.63388885 24.50682663 13.63105896 25.29880951 13.62814331 26.11479187 C13.61699488 28.63137249 13.59190047 31.14759039 13.56640625 33.6640625 C13.55636954 35.37564588 13.54724489 37.08723487 13.5390625 38.79882812 C13.51707306 42.98321156 13.48258033 47.16732564 13.44140625 51.3515625 C10.14140625 51.3515625 6.84140625 51.3515625 3.44140625 51.3515625 C3.11140625 49.7015625 2.78140625 48.0515625 2.44140625 46.3515625 C1.32765625 47.2796875 1.32765625 47.2796875 0.19140625 48.2265625 C-6.07958876 53.07233138 -11.75447132 53.2559829 -19.55859375 52.3515625 C-24.02383723 50.71827878 -26.81466847 48.13268404 -30.05859375 44.7265625 C-32.21438721 39.87602722 -32.31498722 35.57613598 -31.55859375 30.3515625 C-29.17556182 25.20421354 -25.38002173 22.15940107 -20.55859375 19.3515625 C-13.11895655 16.87168343 -3.85503535 17.5719657 3.44140625 20.3515625 C2.6602095 16.6586324 1.88308588 13.92574603 -0.43359375 10.9140625 C-5.33658282 8.46256797 -10.19139136 8.43958661 -15.55859375 9.3515625 C-18.41413392 11.78884132 -18.41413392 11.78884132 -20.55859375 14.3515625 C-24.51180299 14.27249832 -26.2550499 13.55392507 -29.55859375 11.3515625 C-28.23774928 5.73797349 -24.12171748 3.35561896 -19.55859375 0.3515625 C-14.41112249 -2.22217313 -5.50864364 -1.39608373 0 0 Z " fill="#7E7E7E" transform="translate(450.55859375,537.6484375)"/>
<path d="M0 0 C0.94875 0.825 1.8975 1.65 2.875 2.5 C0.52093858 7.4335117 -1.98884711 12.01978158 -5.125 16.5 C-8.92213119 15.11798108 -12.052884 13.31758009 -15.4375 11.125 C-30.48802705 2.36533723 -49.70999557 0.94431723 -66.625 4.5625 C-75.41776736 7.24244361 -84.12181443 11.54401975 -91.125 17.5 C-94.93200968 16.00589642 -96.62261624 13.8813123 -98.9375 10.5625 C-99.56269531 9.68722656 -100.18789063 8.81195313 -100.83203125 7.91015625 C-101.25871094 7.11480469 -101.68539063 6.31945312 -102.125 5.5 C-100.07232472 -0.65802585 -90.97517278 -3.95125747 -85.37890625 -6.9921875 C-58.97452443 -19.93314785 -23.82183241 -17.71906616 0 0 Z " fill="#F5F7F5" transform="translate(538.125,311.5)"/>
<path d="M0 0 C5.60867508 3.57935446 10.67092739 8.76327656 13.1875 15 C13.1875 16.32 13.1875 17.64 13.1875 19 C9.3963422 20.58455366 5.60448003 22.16741513 1.8125 23.75 C0.75160156 24.1934375 -0.30929687 24.636875 -1.40234375 25.09375 C-7.85115327 27.78405091 -14.31576774 30.42750506 -20.8125 33 C-19.04251953 36.82442209 -17.80753649 38.33540146 -13.8125 40 C-8.68033362 40.71113491 -4.98420494 40.67264543 -0.4375 38.0625 C0.861875 37.0415625 0.861875 37.0415625 2.1875 36 C4.1171875 35.21875 4.1171875 35.21875 6.1875 35 C8.109375 35.99609375 8.109375 35.99609375 9.9375 37.4375 C10.55109375 37.91058594 11.1646875 38.38367188 11.796875 38.87109375 C12.25578125 39.24363281 12.7146875 39.61617187 13.1875 40 C11.0819686 44.08598172 9.12203344 46.01307407 5.125 48.25 C4.24714844 48.75015625 3.36929688 49.2503125 2.46484375 49.765625 C-3.9407398 53.23760511 -12.22473016 53.06591827 -19.30078125 51.421875 C-26.05346921 48.44473802 -31.8040327 41.91665054 -34.8125 35.25 C-37.04317529 27.88290134 -37.01607127 19.7413244 -33.875 12.6875 C-26.94030271 0.57647596 -13.39926702 -6.82604169 0 0 Z " fill="#7A7A7A" transform="translate(321.8125,538)"/>
<path d="M0 0 C3.3 0 6.6 0 10 0 C12.06917707 5.36542426 13.90239861 10.7271195 15.5 16.25 C15.82037231 17.3471936 15.82037231 17.3471936 16.1472168 18.46655273 C17.92306153 24.60647714 19.51066569 30.78449358 21 37 C26.96731942 20.16889676 26.96731942 20.16889676 32.30859375 3.1328125 C33 1 33 1 34 0 C35.51928038 -0.07179964 37.04167482 -0.08392007 38.5625 -0.0625 C39.38878906 -0.05347656 40.21507812 -0.04445313 41.06640625 -0.03515625 C41.70449219 -0.02355469 42.34257813 -0.01195312 43 0 C45.47595534 4.57980178 47.00698239 9.01809318 48.375 14 C50.58667758 21.80285322 53.16960911 29.40009935 56 37 C56.24121582 36.0570105 56.24121582 36.0570105 56.48730469 35.0949707 C64.96666257 2.03333743 64.96666257 2.03333743 67 0 C70.00003445 -0.14177857 72.99757235 -0.04228771 76 0 C74.66096533 6.32709745 73.06452765 12.49996916 71.1875 18.6875 C70.92614258 19.55528076 70.66478516 20.42306152 70.39550781 21.31713867 C68.47879873 27.60684855 66.37457481 33.79489092 64.078125 39.95703125 C63.27687298 42.21853604 62.57289613 44.51498074 61.921875 46.82421875 C61 50 61 50 60 51 C58.31391034 51.07205511 56.62499341 51.08386068 54.9375 51.0625 C54.01839844 51.05347656 53.09929688 51.04445313 52.15234375 51.03515625 C51.44207031 51.02355469 50.73179687 51.01195312 50 51 C49.69707031 49.93523438 49.39414062 48.87046875 49.08203125 47.7734375 C46.68248216 39.43297581 44.11836248 31.25875763 41.015625 23.1484375 C39.92521603 19.76816968 39.40816698 16.52265848 39 13 C38.34 13 37.68 13 37 13 C36.85691406 14.37865234 36.85691406 14.37865234 36.7109375 15.78515625 C35.94063344 21.15971635 34.23463722 26.26604156 32.625 31.4375 C32.32078125 32.43587891 32.0165625 33.43425781 31.703125 34.46289062 C29.98232341 40.05549578 28.11923874 45.54588558 26 51 C22.7 51 19.4 51 16 51 C3.4740533 13.89621318 3.4740533 13.89621318 0 0 Z " fill="#7D7D7D" transform="translate(724,538)"/>
<path d="M0 0 C6.62610972 3.42898127 10.40805891 8.70764727 13.125 15.5 C13.125 19.13 13.125 22.76 13.125 26.5 C0.255 26.5 -12.615 26.5 -25.875 26.5 C-23.30687445 35.00338763 -23.30687445 35.00338763 -17.875 40.5 C-17.38 40.995 -17.38 40.995 -16.875 41.5 C-8.65244803 42.43785291 -8.65244803 42.43785291 -0.87109375 40.453125 C0.87982294 38.67607522 2.0142762 36.7214476 3.125 34.5 C8.875 36.375 8.875 36.375 11.125 37.5 C10.6323899 41.70891862 9.61170851 43.48010284 6.375 46.1875 C5.36179687 47.05955078 5.36179687 47.05955078 4.328125 47.94921875 C-2.37528247 52.66775203 -10.02040715 52.41032717 -17.875 51.5 C-25.72542898 48.6535864 -30.27297446 43.66687928 -33.96875 36.328125 C-36.31005764 29.02163046 -36.22809549 19.56426109 -33.8125 12.30859375 C-26.81020329 -0.15473327 -13.6084137 -5.32605157 0 0 Z " fill="#7B7B7B" transform="translate(540.875,538.5)"/>
<path d="M0 0 C3.25147937 1.98622979 5.83460793 4.47323827 8.375 7.3125 C9.035 7.9725 9.695 8.6325 10.375 9.3125 C10.375 10.6325 10.375 11.9525 10.375 13.3125 C7.96371946 14.45116026 6.06841564 15.33416924 3.375 15.25 C0.45123265 13.87948406 -1.3872218 11.60765713 -3.625 9.3125 C-8.24028736 7.77407088 -12.8052042 7.78401362 -17.625 8.3125 C-20.62697464 10.11368478 -22.07666366 11.21582732 -23.625 14.3125 C-24.00445695 17.72761257 -23.95778149 19.71426275 -22.2734375 22.7421875 C-18.39915905 26.50218045 -13.95275987 27.80141917 -8.9375 29.625 C8.43471046 36.32482427 8.43471046 36.32482427 12.5546875 44.71484375 C14.39199217 50.53297521 14.32140089 56.99611301 11.875 62.625 C8.50406125 68.46716075 2.70060068 72.26322996 -3.625 74.3125 C-12.35030826 75.17274166 -19.87418985 74.84635385 -27.00390625 69.54296875 C-31.24112851 65.98587848 -34.90346536 62.72303744 -36.625 57.3125 C-36.625 55.0625 -36.625 55.0625 -35.625 53.3125 C-32.73388212 51.79085901 -30.90676588 51.3125 -27.625 51.3125 C-27.41746094 51.83199219 -27.20992188 52.35148438 -26.99609375 52.88671875 C-24.65329245 58.18987985 -22.13540847 62.05396446 -16.625 64.3125 C-10.51644012 65.31929909 -5.96957865 64.51924719 -0.625 61.3125 C0.035 61.3125 0.695 61.3125 1.375 61.3125 C2.58397531 56.94235155 3.04659803 52.81948916 2.375 48.3125 C-1.98515314 41.69709524 -10.98827892 39.04560971 -18.3125 36.875 C-24.40917814 34.91925558 -29.56421883 31.38490065 -33.125 26 C-35.55002512 20.0384799 -35.58827379 15.64041166 -33.125 9.6875 C-25.94679985 -1.32421923 -12.21529409 -5.81457377 0 0 Z " fill="#7B7B7B" transform="translate(398.625,515.6875)"/>
<path d="M0 0 C1.2372583 0.01027222 1.2372583 0.01027222 2.49951172 0.02075195 C13.35982396 0.30298899 22.60085246 3.66904522 31.75 9.4375 C30.42359093 12.35225606 28.96046854 14.51068735 26.765625 16.8359375 C26.16645264 17.47402344 25.56728027 18.11210937 24.94995117 18.76953125 C24.30646729 19.44371094 23.6629834 20.11789062 23 20.8125 C22.33911377 21.50988281 21.67822754 22.20726562 20.99731445 22.92578125 C16.3537814 27.80477193 11.6695562 32.64432868 6.9375 37.4375 C6.34549805 38.04255371 5.75349609 38.64760742 5.14355469 39.27099609 C3.71784229 40.69963861 2.23861919 42.07452964 0.75 43.4375 C0.09 43.4375 -0.57 43.4375 -1.25 43.4375 C-2.57446289 42.09179688 -2.57446289 42.09179688 -4.16015625 40.15625 C-9.02209884 34.43839374 -14.36246679 29.21690237 -19.6875 23.9375 C-20.7157298 22.91429861 -21.74372626 21.89086267 -22.77148438 20.8671875 C-25.26164338 18.38792001 -27.75492833 15.91182462 -30.25 13.4375 C-28.58969891 9.81481331 -27.15481795 8.409811 -23.6875 6.375 C-22.88183594 5.88902344 -22.07617188 5.40304687 -21.24609375 4.90234375 C-14.21178432 1.46314422 -7.82653426 -0.10108667 0 0 Z " fill="#F7F8F7" transform="translate(488.25,331.5625)"/>
<path d="M0 0 C4.75144381 1.6581721 7.83567967 4.28149066 10.4375 8.5625 C12.8801649 13.93636278 13.13710102 18.4053248 13.09765625 24.265625 C13.0962413 25.05902283 13.09482635 25.85242065 13.09336853 26.66986084 C13.08778415 29.19661272 13.07523454 31.72327504 13.0625 34.25 C13.05748298 35.96614455 13.05292043 37.68229049 13.04882812 39.3984375 C13.03781984 43.59899269 13.02056596 47.79948117 13 52 C9.7 52 6.4 52 3 52 C2.98541748 50.97116699 2.97083496 49.94233398 2.95581055 48.88232422 C2.89761343 45.04653053 2.82038297 41.21131078 2.73754883 37.37597656 C2.70439982 35.71949616 2.67633691 34.06290554 2.65356445 32.40625 C2.61983268 30.01775366 2.56751041 27.63025829 2.51171875 25.2421875 C2.50532883 24.50757294 2.4989389 23.77295837 2.49235535 23.01608276 C2.35923131 18.30645154 1.50233547 14.99902754 -1 11 C-4.85959016 8.64136157 -8.55929386 8.45465012 -13 9 C-16.44939161 11.04758406 -18.77585361 13.66378041 -21 17 C-21.24047646 19.68004202 -21.37273498 22.26554203 -21.4140625 24.94921875 C-21.43342865 25.72183548 -21.4527948 26.49445221 -21.4727478 27.29048157 C-21.53248479 29.7560424 -21.57890486 32.22165007 -21.625 34.6875 C-21.66318525 36.3600463 -21.70223731 38.03257305 -21.7421875 39.70507812 C-21.83818133 43.80322647 -21.92223377 47.90146688 -22 52 C-25.3 52 -28.6 52 -32 52 C-32 35.17 -32 18.34 -32 1 C-29.03 1 -26.06 1 -23 1 C-22.67 2.98 -22.34 4.96 -22 7 C-21.51789062 6.57847656 -21.03578125 6.15695312 -20.5390625 5.72265625 C-19.90742187 5.17480469 -19.27578125 4.62695312 -18.625 4.0625 C-17.68527344 3.24458984 -17.68527344 3.24458984 -16.7265625 2.41015625 C-12.00329354 -1.44753627 -5.78363125 -0.58850985 0 0 Z " fill="#7E7E7E" transform="translate(904,537)"/>
<path d="M0 0 C4.68343875 2.13207974 7.57086043 5.11480131 10.48828125 9.30859375 C10.48828125 9.96859375 10.48828125 10.62859375 10.48828125 11.30859375 C7.11730742 12.80680434 5.28386006 13.30859375 1.48828125 13.30859375 C0.11395215 12.01755732 -1.22068232 10.68292285 -2.51171875 9.30859375 C-7.1402161 7.7657613 -11.59080367 7.39615909 -16.01171875 9.49609375 C-17.70573281 11.25144779 -17.70573281 11.25144779 -18.01171875 13.80859375 C-17.74150993 16.36377798 -17.74150993 16.36377798 -15.97265625 17.84375 C-12.12045473 20.1367271 -7.87117769 20.78386338 -3.53125 21.68164062 C2.13401699 22.95659242 6.54733914 24.97946321 10.36328125 29.55859375 C12.54732474 34.89736673 12.09496164 38.81717111 9.98828125 43.99609375 C7.27298794 48.07839679 4.14227672 50.70006997 -0.51171875 52.30859375 C-7.92924365 53.20690991 -15.04538554 53.29845892 -21.51171875 49.30859375 C-24.56142311 46.60544671 -27.32526401 43.7608907 -29.51171875 40.30859375 C-29.51171875 39.31859375 -29.51171875 38.32859375 -29.51171875 37.30859375 C-27.06985176 36.1554899 -25.17515178 35.28848972 -22.44921875 35.37109375 C-19.67940929 36.71132413 -18.38738838 38.90539203 -16.51171875 41.30859375 C-12.32102276 43.90114296 -8.30402418 43.86256667 -3.51171875 43.30859375 C-0.87245411 42.39546267 -0.87245411 42.39546267 0.48828125 40.30859375 C1.23828125 37.30859375 1.23828125 37.30859375 0.48828125 34.30859375 C-4.17540673 30.83249918 -9.48957749 29.86366952 -15.0390625 28.46875 C-19.86661821 26.85594455 -24.23575451 24.27423467 -27.51171875 20.30859375 C-28.76607549 16.54552354 -29.26153756 13.20051043 -28.51171875 9.30859375 C-22.55344146 -1.10292884 -11.00984012 -3.03070249 0 0 Z " fill="#7B7B7B" transform="translate(832.51171875,537.69140625)"/>
<path d="M0 0 C0.98484375 0.00902344 1.9696875 0.01804687 2.984375 0.02734375 C4.10585938 0.04474609 4.10585938 0.04474609 5.25 0.0625 C6.38583456 3.77977674 5.91670026 5.53301709 4.25 9.0625 C3.20199219 9.11857422 3.20199219 9.11857422 2.1328125 9.17578125 C0.76769531 9.27439453 0.76769531 9.27439453 -0.625 9.375 C-1.98238281 9.46201172 -1.98238281 9.46201172 -3.3671875 9.55078125 C-6.11221601 9.8507039 -6.11221601 9.8507039 -7.75 13.0625 C-8.20601261 15.57146686 -8.20601261 15.57146686 -8.375 18.25 C-8.49875 19.838125 -8.6225 21.42625 -8.75 23.0625 C-4.46 23.0625 -0.17 23.0625 4.25 23.0625 C4.25 26.0325 4.25 29.0025 4.25 32.0625 C-0.04 32.0625 -4.33 32.0625 -8.75 32.0625 C-8.75 45.9225 -8.75 59.7825 -8.75 74.0625 C-12.05 74.0625 -15.35 74.0625 -18.75 74.0625 C-18.75 60.2025 -18.75 46.3425 -18.75 32.0625 C-21.72 32.0625 -24.69 32.0625 -27.75 32.0625 C-27.75 29.0925 -27.75 26.1225 -27.75 23.0625 C-24.78 23.0625 -21.81 23.0625 -18.75 23.0625 C-18.79640625 22.34964844 -18.8428125 21.63679687 -18.890625 20.90234375 C-19.14063827 14.26806309 -18.78293575 10.40341491 -14.75 5.0625 C-9.96822819 0.51981678 -6.44329177 -0.07670585 0 0 Z " fill="#7E7E7E" transform="translate(498.75,514.9375)"/>
<path d="M0 0 C3.96 0 7.92 0 12 0 C12 26.4 12 52.8 12 80 C8.04 80 4.08 80 0 80 C0 53.6 0 27.2 0 0 Z " fill="#7B7B7B" transform="translate(268,509)"/>
<path d="M0 0 C4.18279714 1.79039354 7.6433055 4.07232331 10.11328125 7.9453125 C12.28920685 14.04389298 12.35060415 21.69147426 10.04296875 27.75390625 C7.46101147 31.67714005 4.37968638 33.94217339 -0.03515625 35.33203125 C-5.2897902 35.95945023 -9.58317929 35.9656212 -14.47265625 33.83203125 C-19.35096929 29.07270145 -21.25678506 24.60232357 -21.47265625 17.76953125 C-21.24809829 12.98776755 -20.68579652 9.4284753 -18.03515625 5.33203125 C-12.51153997 0.37069926 -7.4443796 -2.44335684 0 0 Z " fill="#FCFCFC" transform="translate(701.03515625,545.66796875)"/>
<path d="M0 0 C4.30936328 1.92382289 7.1238987 4.48808649 9.30078125 8.75 C11.07606877 14.46265706 11.17624604 20.90030244 9.046875 26.51171875 C6.6618779 30.59489416 4.29310995 32.88771513 0 35 C-4.81409026 35.84607308 -9.79115619 36.12569798 -14.23046875 33.86328125 C-18.6905265 30.24007869 -21.60738255 26.23909394 -22.3125 20.421875 C-22.67197666 12.1988465 -20.81635817 8.30922085 -15.5 2.0625 C-11.02165844 -1.3876509 -5.3251627 -0.7753671 0 0 Z " fill="#FBFBFB" transform="translate(955,546)"/>
<path d="M0 0 C4.53597066 2.33579884 8.17208513 5.13150479 10 10 C10.71669548 16.16171954 10.68012492 21.79706477 7 27 C1.90765314 31.59553253 -1.40426196 32.46728928 -8.1640625 32.4140625 C-11.98711158 31.85587627 -13.90515129 30.40759523 -16.66015625 27.80078125 C-20.66770213 22.41454612 -20.75957923 16.45642347 -20 10 C-16.01331117 1.56661978 -9.02828783 -1.86121626 0 0 Z " fill="#FCFCFC" transform="translate(122,547)"/>
<path d="M0 0 C3.51520834 2.3707219 5.79390381 5.02530762 7.6875 8.8125 C8.22004148 15.08010361 8.3448635 20.45707487 4.6875 25.8125 C1.7540572 29.20429324 -0.26735234 30.5877585 -4.80078125 31.0859375 C-13.36647677 31.39397081 -13.36647677 31.39397081 -16.8125 28.625 C-21.43035582 23.4299122 -22.84818729 20.26320188 -22.58984375 13.30859375 C-22.00077172 8.00694545 -20.27277035 4.26833361 -16.1875 0.875 C-10.91174666 -2.5046052 -5.71949457 -2.05038485 0 0 Z " fill="#FCFCFC" transform="translate(183.3125,548.1875)"/>
<path d="M0 0 C4.86916044 1.76378066 7.75306792 4.33431161 10 9 C10.83014459 15.50279925 11.14334395 22.61365287 7 28 C3.36506991 31.45318359 0.38295567 32.31702533 -4.5 32.5625 C-8.12610113 32.41962373 -10.60066044 32.11473981 -13.5 29.875 C-18.12720442 24.55371492 -19.58846687 20.3780392 -19.34765625 13.39453125 C-18.62307474 8.40387435 -15.63326242 5.67744351 -12.3125 2.125 C-8.01350627 -0.63284503 -4.97324607 -0.93410535 0 0 Z " fill="#FBFBFB" transform="translate(239,547)"/>
<path d="M0 0 C-0.99 2.97 -1.98 5.94 -3 9 C-4.10408203 9.02126953 -4.10408203 9.02126953 -5.23046875 9.04296875 C-11.65535223 9.30116574 -11.65535223 9.30116574 -17.125 12.4375 C-20.1465271 16.56692037 -20.20290384 19.65204376 -20.31640625 24.6328125 C-20.33718735 25.38464813 -20.35796844 26.13648376 -20.37937927 26.91110229 C-20.44482705 29.31564085 -20.50373738 31.72028967 -20.5625 34.125 C-20.60568977 35.75391771 -20.64930421 37.38282422 -20.69335938 39.01171875 C-20.80050351 43.00769915 -20.90178433 47.00379059 -21 51 C-24.3 51 -27.6 51 -31 51 C-31 34.17 -31 17.34 -31 0 C-28.03 0 -25.06 0 -22 0 C-21.67 2.31 -21.34 4.62 -21 7 C-20.46375 6.236875 -19.9275 5.47375 -19.375 4.6875 C-14.03749809 -1.35230479 -7.55409655 -2.51803218 0 0 Z " fill="#7E7E7E" transform="translate(670,538)"/>
<path d="M0 0 C5.506875 -0.12375 5.506875 -0.12375 11.125 -0.25 C12.2711377 -0.28641602 13.41727539 -0.32283203 14.59814453 -0.36035156 C20.73320915 -0.42704874 24.35863791 -0.14628346 29 4 C31.33031854 6.96585996 31.47119441 10.23622643 31.39453125 13.96484375 C30.68647817 17.61727597 28.62465368 19.43783808 26 22 C23.39048764 23.30475618 21.47298715 23.11301572 18.5546875 23.09765625 C16.94013672 23.09282227 16.94013672 23.09282227 15.29296875 23.08789062 C14.16503906 23.07951172 13.03710938 23.07113281 11.875 23.0625 C10.73933594 23.05798828 9.60367188 23.05347656 8.43359375 23.04882812 C5.62237353 23.03701628 2.81118028 23.01908041 0 23 C0 15.41 0 7.82 0 0 Z " fill="#FDFDFD" transform="translate(590,556)"/>
<path d="M0 0 C3.17625 -0.0825 6.3525 -0.165 9.625 -0.25 C10.6145166 -0.28641602 11.6040332 -0.32283203 12.62353516 -0.36035156 C18.44340314 -0.43329108 21.53907229 0.2025647 26 4 C28.36240216 6.36240216 28.93235468 7.55547362 29.4375 10.875 C28.78547568 15.5323166 26.62523219 18.52726891 23.17089844 21.6574707 C20.55838818 23.27310205 19.0655261 23.34875962 16.015625 23.29296875 C15.17290039 23.28547607 14.33017578 23.2779834 13.46191406 23.27026367 C12.40198242 23.24295166 11.34205078 23.21563965 10.25 23.1875 C6.8675 23.125625 3.485 23.06375 0 23 C0 15.41 0 7.82 0 0 Z " fill="#FAFAFA" transform="translate(590,524)"/>
<path d="M0 0 C3.3 0 6.6 0 10 0 C10 16.83 10 33.66 10 51 C6.7 51 3.4 51 0 51 C0 34.17 0 17.34 0 0 Z " fill="#818181" transform="translate(851,538)"/>
<path d="M0 0 C1.02867187 -0.01417969 2.05734375 -0.02835938 3.1171875 -0.04296875 C6.17963488 0.19168631 8.35748861 0.89565428 11.125 2.1875 C11.70508442 5.50226814 11.57778624 7.51927514 9.671875 10.33203125 C4.02376405 16.91753877 4.02376405 16.91753877 -1.43359375 17.42578125 C-9.1241425 17.62404506 -9.1241425 17.62404506 -12.5625 15.625 C-14.42065027 12.17414949 -14.48512353 10.05161566 -13.875 6.1875 C-9.69133732 0.98618964 -6.47698075 0.04038018 0 0 Z " fill="#FBFBFB" transform="translate(442.875,563.8125)"/>
<path d="M0 0 C4.63235294 2.26470588 4.63235294 2.26470588 6 5 C6.68839635 11.99869622 6.68839635 11.99869622 3.9375 16 C0.22192774 18.52975133 -1.5882483 18.7878128 -6 18 C-9.57442614 15.43573777 -10.78376999 13.71228711 -12.0625 9.5 C-11.98656644 5.24772053 -11.0047581 3.91890787 -8 1 C-5.17998673 -0.41000664 -3.12992745 -0.24548451 0 0 Z " fill="#FDFDFD" transform="translate(408,32)"/>
<path d="M0 0 C3.34265205 1.20706879 3.94704566 1.92056849 6 5 C6.44261436 8.98352923 6.3653862 11.29967646 4.5 14.875 C1.59669933 17.34280557 -0.2752475 18.01955861 -4.03125 18.2578125 C-6 18 -6 18 -8.9375 16 C-11.39017365 12.43247469 -12.0772846 10.32793752 -12 6 C-8.61688712 0.63368302 -6.21610289 -0.37296617 0 0 Z " fill="#FDFDFD" transform="translate(375,32)"/>
<path d="M0 0 C3.76817191 1.49714316 5.74034723 3.61052084 8 7 C8 8.32 8 9.64 8 11 C-1.24 11 -10.48 11 -20 11 C-18.9333997 5.66699851 -18.30902175 4.38384074 -14.296875 1.17578125 C-9.73587338 -1.1590172 -4.95003575 -0.81699619 0 0 Z " fill="#FCFCFC" transform="translate(536,546)"/>
<path d="M0 0 C3.0625 1.3125 3.0625 1.3125 5 3 C5 3.99 5 4.98 5 6 C1.35532029 7.5028142 -2.29092988 9.00177933 -5.9375 10.5 C-6.97841797 10.92925781 -8.01933594 11.35851562 -9.09179688 11.80078125 C-10.08115234 12.20683594 -11.07050781 12.61289062 -12.08984375 13.03125 C-13.00628662 13.40830078 -13.92272949 13.78535156 -14.86694336 14.17382812 C-17 15 -17 15 -18 15 C-18.50464541 9.70122324 -17.36521927 7.09283425 -14 3 C-9.77714224 -0.61959237 -5.32414237 -0.72208079 0 0 Z " fill="#F9F9F9" transform="translate(316,547)"/>
<path d="M0 0 C6.84162896 -0.65158371 6.84162896 -0.65158371 10 1.125 C11.52364827 3.98184051 11.51955068 5.81775209 11 9 C8.875 11.4375 8.875 11.4375 6 13 C2.8125 12.9375 2.8125 12.9375 0 12 C-2.31332486 8.53001271 -2.33957563 7.07490752 -2 3 C-1.34 2.01 -0.68 1.02 0 0 Z " fill="#7D7D7D" transform="translate(852,515)"/>
</svg>
