<?xml version="1.0" encoding="UTF-8"?>
<svg version="1.1" xmlns="http://www.w3.org/2000/svg" width="522" height="408">
<path d="M0 0 C148.83 0 297.66 0 451 0 C451 91.74 451 183.48 451 278 C302.17 278 153.34 278 0 278 C0 186.26 0 94.52 0 0 Z M67 120 C67 136.5 67 153 67 170 C70.3 170 73.6 170 77 170 C77.33 163.73 77.66 157.46 78 151 C80.07861328 150.97873047 80.07861328 150.97873047 82.19921875 150.95703125 C84.02867878 150.91012202 85.85810485 150.86187468 87.6875 150.8125 C88.59951172 150.80669922 89.51152344 150.80089844 90.45117188 150.79492188 C94.79601357 150.65272706 97.37664592 150.39184491 101.11328125 148.04296875 C103.74916156 143.79172494 103.665214 140.40385196 103.5 135.5 C103.50257813 134.65824219 103.50515625 133.81648437 103.5078125 132.94921875 C103.4328513 128.18918242 103.10798588 124.83927668 100 121 C97.02640551 119.51320275 94.33700821 119.88887395 91.0234375 119.90234375 C89.14277588 119.90609009 89.14277588 119.90609009 87.22412109 119.90991211 C85.62391113 119.91901611 84.02370117 119.92812012 82.375 119.9375 C77.30125 119.958125 72.2275 119.97875 67 120 Z M107 120 C107 136.5 107 153 107 170 C110.63 170 114.26 170 118 170 C118.33 161.09 118.66 152.18 119 143 C122.96 143 126.92 143 131 143 C131 151.91 131 160.82 131 170 C134.63 170 138.26 170 142 170 C142.12394421 165.39194479 142.21449675 160.78486719 142.2746582 156.17553711 C142.29974547 154.60895886 142.33382415 153.04249701 142.37719727 151.47631836 C142.43811226 149.21959691 142.46626499 146.96442706 142.48828125 144.70703125 C142.51408768 144.01100296 142.5398941 143.31497467 142.56648254 142.59785461 C142.56865889 138.79264324 142.08460406 137.11145312 139.75976562 134.04882812 C136.88864523 131.91733111 135.84298734 131.39309567 132.35546875 131.51171875 C131.51435547 131.52783203 130.67324219 131.54394531 129.80664062 131.56054688 C128.94232422 131.60244141 128.07800781 131.64433594 127.1875 131.6875 C125.86202148 131.72133789 125.86202148 131.72133789 124.50976562 131.75585938 C122.3391109 131.81452572 120.1693331 131.90420021 118 132 C118 128.04 118 124.08 118 120 C114.37 120 110.74 120 107 120 Z M203 120 C203 136.5 203 153 203 170 C206.63 170 210.26 170 214 170 C214.33 161.09 214.66 152.18 215 143 C218.96 143 222.92 143 227 143 C227 151.91 227 160.82 227 170 C230.63 170 234.26 170 238 170 C238.12394421 165.39194479 238.21449675 160.78486719 238.2746582 156.17553711 C238.29974547 154.60895886 238.33382415 153.04249701 238.37719727 151.47631836 C238.43811226 149.21959691 238.46626499 146.96442706 238.48828125 144.70703125 C238.51408768 144.01100296 238.5398941 143.31497467 238.56648254 142.59785461 C238.56865889 138.79264324 238.08460406 137.11145312 235.75976562 134.04882812 C232.88864523 131.91733111 231.84298734 131.39309567 228.35546875 131.51171875 C227.51435547 131.52783203 226.67324219 131.54394531 225.80664062 131.56054688 C224.94232422 131.60244141 224.07800781 131.64433594 223.1875 131.6875 C221.86202148 131.72133789 221.86202148 131.72133789 220.50976562 131.75585938 C218.3391109 131.81452572 216.1693331 131.90420021 214 132 C214 128.04 214 124.08 214 120 C210.37 120 206.74 120 203 120 Z M238 120 C238 123.96 238 127.92 238 132 C241.3 132 244.6 132 248 132 C248.33 144.54 248.66 157.08 249 170 C252.63 170 256.26 170 260 170 C260.33 157.46 260.66 144.92 261 132 C264.3 132 267.6 132 271 132 C271 128.04 271 124.08 271 120 C260.11 120 249.22 120 238 120 Z M351 120 C351 136.5 351 153 351 170 C354.3 170 357.6 170 361 170 C362.49297212 167.01405576 362.11755228 164.29146376 362 161 C361.67 160.34 361.34 159.68 361 159 C363.85554139 161.6969002 365.864387 163.7005213 367.5 167.3125 C369.75175287 170.31275863 369.75175287 170.31275863 373.140625 170.37890625 C376.44711734 170.3753278 379.70413392 170.25719186 383 170 C379.38444861 164.39788191 375.60932389 159.16992548 371.22265625 154.140625 C370 152 370 152 369.99609375 149.6171875 C371.33717561 146.12098187 373.53308493 143.62286928 376 140.875 C379.65073975 136.85408184 379.65073975 136.85408184 382 132 C377.55161689 131.46540203 373.42499212 131.20023924 369 132 C366.67747141 134.14780626 365.47190897 136.12213675 364.05078125 138.93359375 C363 141 363 141 361 142 C361.165 141.13375 361.33 140.2675 361.5 139.375 C362.37565395 133.32047842 362.27797478 127.09909369 362 121 C361.67 120.67 361.34 120.34 361 120 C357.7 120 354.4 120 351 120 Z M148 131 C148 143.87 148 156.74 148 170 C151.3 170 154.6 170 158 170 C159.58157077 166.83685847 159.1418935 163.43710457 159.1328125 159.96484375 C159.13376923 159.1709877 159.13472595 158.37713165 159.13571167 157.55921936 C159.13639251 155.88054322 159.1345449 154.20186445 159.13037109 152.52319336 C159.12501441 149.94443903 159.13032292 147.36585832 159.13671875 144.78710938 C159.13605809 143.15885378 159.13477718 141.53059829 159.1328125 139.90234375 C159.13584885 138.73831276 159.13584885 138.73831276 159.13894653 137.55076599 C159.45605989 133.97991173 159.45605989 133.97991173 158 131 C154.7 131 151.4 131 148 131 Z M275 131 C275 134.3 275 137.6 275 141 C281.93 141.33 288.86 141.66 296 142 C296.33 143.32 296.66 144.64 297 146 C295.75863281 145.94199219 294.51726562 145.88398438 293.23828125 145.82421875 C291.59639186 145.77730762 289.95446168 145.73180891 288.3125 145.6875 C287.49587891 145.64560547 286.67925781 145.60371094 285.83789062 145.56054688 C281.4931708 145.47259708 279.5847711 145.57106699 275.98046875 148.21484375 C272.99895837 152.4077765 272.72432023 155.94324536 273 161 C273.76340257 164.38876263 274.76780023 167.19706113 277.796875 169.17089844 C280.35168504 170.13234956 282.33541431 170.25859643 285.0625 170.265625 C286.50496094 170.26949219 286.50496094 170.26949219 287.9765625 170.2734375 C288.97429687 170.26570313 289.97203125 170.25796875 291 170.25 C291.99773437 170.25773437 292.99546875 170.26546875 294.0234375 170.2734375 C294.98507812 170.27085937 295.94671875 170.26828125 296.9375 170.265625 C298.25041016 170.26224121 298.25041016 170.26224121 299.58984375 170.25878906 C302.21646034 169.9767577 303.78838219 169.43181952 306 168 C309.15824471 163.26263293 308.37195321 158.17821459 308.37060547 152.60327148 C308.37497836 150.57255146 308.41130537 148.54400733 308.44921875 146.51367188 C308.45308594 145.23169922 308.45695312 143.94972656 308.4609375 142.62890625 C308.47326416 140.8665564 308.47326416 140.8665564 308.48583984 139.06860352 C307.90358844 135.39105684 306.88467271 134.26816043 304 132 C301.23382437 130.61691219 298.98982 130.88789804 295.8984375 130.90234375 C294.08085937 130.90717773 294.08085937 130.90717773 292.2265625 130.91210938 C290.95554687 130.92048828 289.68453125 130.92886719 288.375 130.9375 C286.456875 130.94426758 286.456875 130.94426758 284.5 130.95117188 C281.33328708 130.96298797 278.16666644 130.97946185 275 131 Z M163 137 C162.32509115 140.20555954 162.32509115 140.20555954 162.5625 143.5625 C162.58441406 144.67753906 162.60632813 145.79257813 162.62890625 146.94140625 C162.97961258 149.83196478 163.40674862 151.59027816 165 154 C167.40059817 155.20029908 168.89360649 155.11459743 171.5703125 155.09765625 C172.91416016 155.09282227 172.91416016 155.09282227 174.28515625 155.08789062 C175.22230469 155.07951172 176.15945312 155.07113281 177.125 155.0625 C178.54232422 155.05573242 178.54232422 155.05573242 179.98828125 155.04882812 C182.32558387 155.03702357 184.66276061 155.02055759 187 155 C187 156.32 187 157.64 187 159 C179.41 159 171.82 159 164 159 C164 162.63 164 166.26 164 170 C168.56216465 170.14532035 173.12373362 170.23408477 177.6875 170.3125 C178.98107422 170.35439453 180.27464844 170.39628906 181.60742188 170.43945312 C182.85458984 170.45556641 184.10175781 170.47167969 185.38671875 170.48828125 C186.53358154 170.51446533 187.68044434 170.54064941 188.86206055 170.56762695 C192.98537553 169.82175382 194.44066736 168.24925505 197 165 C197.71424171 161.33659994 197.71424171 161.33659994 197.5 157.4375 C197.4896875 156.13683594 197.479375 154.83617187 197.46875 153.49609375 C196.97522414 149.8152134 196.52827088 148.61022342 194 146 C191.79445523 145.3625747 191.79445523 145.3625747 189.33203125 145.390625 C188.43935547 145.35839844 187.54667969 145.32617188 186.62695312 145.29296875 C185.69818359 145.27878906 184.76941406 145.26460937 183.8125 145.25 C182.87212891 145.22035156 181.93175781 145.19070312 180.96289062 145.16015625 C178.64184084 145.08946438 176.32179465 145.03676835 174 145 C174 144.34 174 143.68 174 143 C181.26 142.67 188.52 142.34 196 142 C196 138.7 196 135.4 196 132 C191.43783535 131.85467965 186.87626638 131.76591523 182.3125 131.6875 C181.01892578 131.64560547 179.72535156 131.60371094 178.39257812 131.56054688 C177.14541016 131.54443359 175.89824219 131.52832031 174.61328125 131.51171875 C173.46641846 131.48553467 172.31955566 131.45935059 171.13793945 131.43237305 C167.02460192 132.17644134 165.56578026 133.77225434 163 137 Z M312.9471283 136.21647644 C311.3035014 139.31156641 311.44267295 142.13364731 311.51171875 145.5859375 C311.51879349 146.28772125 311.52586823 146.989505 311.53315735 147.71255493 C311.56094903 149.93449591 311.62364566 152.15383265 311.6875 154.375 C311.71260314 155.88928628 311.73541278 157.40361243 311.75585938 158.91796875 C311.81072154 162.6128126 311.89688192 166.30615175 312 170 C315.63 170 319.26 170 323 170 C323 161.09 323 152.18 323 143 C327.29 143 331.58 143 336 143 C336 151.91 336 160.82 336 170 C339.63 170 343.26 170 347 170 C347.09917794 165.53432237 347.17161225 161.06923493 347.21972656 156.6027832 C347.23979203 155.0847659 347.26705134 153.56682541 347.30175781 152.04907227 C347.35050393 149.86194878 347.37301805 147.67585048 347.390625 145.48828125 C347.41157227 144.17384033 347.43251953 142.85939941 347.45410156 141.50512695 C346.92906843 137.45249214 345.86169466 135.85337965 343 133 C338.89443141 130.94721571 333.70024945 131.63880888 329.1875 131.5625 C328.09373047 131.51673828 326.99996094 131.47097656 325.87304688 131.42382812 C324.2865332 131.4015918 324.2865332 131.4015918 322.66796875 131.37890625 C321.70141357 131.3538501 320.7348584 131.32879395 319.73901367 131.30297852 C316.48975448 132.12984677 314.93999633 133.53836442 312.9471283 136.21647644 Z " fill="#177AB2" transform="translate(36,66)"/>
<path d="M0 0 C0.99 0.33 1.98 0.66 3 1 C2.85831863 2.43791516 2.71148957 3.8753237 2.5625 5.3125 C2.48128906 6.11300781 2.40007812 6.91351563 2.31640625 7.73828125 C2 10 2 10 1 13 C2.010625 12.67 3.02125 12.34 4.0625 12 C7.75479911 10.92998679 11.15248207 10.84295845 15 11 C13.48504785 15.24186602 10.87240105 16.88113905 7 19 C3.125 19.75 3.125 19.75 0 20 C0.54708727 22.53744315 0.54708727 22.53744315 2 25 C5.05272465 25.89830839 5.05272465 25.89830839 8 26 C7.505 27.485 7.505 27.485 7 29 C4.890625 29.81640625 4.890625 29.81640625 2.25 30.5625 C-0.96229109 31.74094673 -2.59391146 32.38236272 -4.4921875 35.26953125 C-5.25032059 37.01323735 -5.99374825 38.76340771 -6.72265625 40.51953125 C-9.024785 44.99002592 -13.17622078 48.05683487 -17.9296875 49.64453125 C-20.33884514 50.05817907 -22.61828795 50.13237319 -25.0625 50.125 C-26.34833984 50.12886719 -26.34833984 50.12886719 -27.66015625 50.1328125 C-30 50 -30 50 -33 49 C-34.6196057 45.7607886 -34.22623755 42.24295619 -34.25 38.6875 C-34.270625 37.92759766 -34.29125 37.16769531 -34.3125 36.38476562 C-34.34530436 31.66503865 -33.84036535 28.934432 -31 25 C-30.45160428 23.76184432 -29.92642456 22.51282229 -29.4375 21.25 C-28 18 -28 18 -26 17 C-26 18.32 -26 19.64 -26 21 C-19.93819784 18.53418217 -17.08688204 16.50989307 -14.0078125 10.70703125 C-13 9 -13 9 -11 8 C-10.34 10.31 -9.68 12.62 -9 15 C-7.68 15.33 -6.36 15.66 -5 16 C-5.061875 14.80375 -5.12375 13.6075 -5.1875 12.375 C-5.1948204 8.24629518 -4.19607242 5.5475016 -2 2 C-1.34 1.34 -0.68 0.68 0 0 Z " fill="#E1BF18" transform="translate(216,141)"/>
<path d="M0 0 C1.09445938 0.00212242 1.09445938 0.00212242 2.21102905 0.00428772 C4.54437335 0.00989094 6.87762214 0.0224439 9.2109375 0.03515625 C10.79166528 0.04017084 12.37239457 0.04473382 13.953125 0.04882812 C17.83076604 0.05986141 21.70833557 0.07712814 25.5859375 0.09765625 C26.0809375 1.08765625 26.0809375 1.08765625 26.5859375 2.09765625 C25.19375 2.62359375 25.19375 2.62359375 23.7734375 3.16015625 C19.7281011 5.61908622 19.23756451 7.74336685 17.5859375 12.09765625 C14.20377747 17.05815762 10.49728634 19.92180024 4.5859375 21.09765625 C2.90035291 21.18819318 1.21144414 21.22774828 -0.4765625 21.22265625 C-1.76240234 21.22652344 -1.76240234 21.22652344 -3.07421875 21.23046875 C-5.4140625 21.09765625 -5.4140625 21.09765625 -8.4140625 20.09765625 C-10.06903606 16.78770912 -9.51490585 13.10642625 -9.4765625 9.47265625 C-9.47205078 8.67085937 -9.46753906 7.8690625 -9.46289062 7.04296875 C-9.45109418 5.06116619 -9.43315855 3.07940192 -9.4140625 1.09765625 C-6.40193221 -0.4084089 -3.30123628 -0.02394706 0 0 Z " fill="#FA7F03" transform="translate(191.4140625,169.90234375)"/>
<path d="M0 0 C1.81242052 -0.02687279 3.62495233 -0.04633715 5.4375 -0.0625 C6.44683594 -0.07410156 7.45617187 -0.08570313 8.49609375 -0.09765625 C11 0 11 0 12 1 C12.08651611 2.41570123 12.10704904 3.835595 12.09765625 5.25390625 C12.09443359 6.10791016 12.09121094 6.96191406 12.08789062 7.84179688 C12.07951172 8.73962891 12.07113281 9.63746094 12.0625 10.5625 C12.05798828 11.46419922 12.05347656 12.36589844 12.04882812 13.29492188 C12.03700225 15.53001314 12.0205222 17.76497437 12 20 C12.66 20 13.32 20 14 20 C14 15.38 14 10.76 14 6 C14.66 5.67 15.32 5.34 16 5 C15.98839844 6.04800781 15.97679687 7.09601563 15.96484375 8.17578125 C15.95546345 9.55468572 15.9463635 10.93359211 15.9375 12.3125 C15.92912109 13.00279297 15.92074219 13.69308594 15.91210938 14.40429688 C15.89692094 17.5483025 15.99806673 19.99420019 17 23 C19.34938888 24.17469444 20.95073205 24.20034889 23.5703125 24.31640625 C24.46621094 24.35830078 25.36210937 24.40019531 26.28515625 24.44335938 C27.22230469 24.48267578 28.15945312 24.52199219 29.125 24.5625 C30.06988281 24.60568359 31.01476562 24.64886719 31.98828125 24.69335938 C34.32537092 24.79959072 36.6625683 24.90163176 39 25 C39 26.32 39 27.64 39 29 C31.41 29 23.82 29 16 29 C16 32.63 16 36.26 16 40 C15.67 40 15.34 40 15 40 C15 36.37 15 32.74 15 29 C14.34 29 13.68 29 13 29 C12.67 32.63 12.34 36.26 12 40 C11.34 39.67 10.68 39.34 10 39 C10 26.79 10 14.58 10 2 C6.7 1.67 3.4 1.34 0 1 C0 0.67 0 0.34 0 0 Z " fill="#67A6CB" transform="translate(184,196)"/>
<path d="M0 0 C1.99694935 -0.00217427 3.99385924 -0.02065354 5.99072266 -0.03930664 C7.89917969 -0.04220703 7.89917969 -0.04220703 9.84619141 -0.04516602 C11.00538086 -0.0492749 12.16457031 -0.05338379 13.35888672 -0.05761719 C17.13413932 0.21138713 20.1759598 1.03110547 23.76806641 2.18530273 C23.43806641 3.17530273 23.10806641 4.16530273 22.76806641 5.18530273 C18.06603627 6.11477381 13.51994406 6.31753925 8.74462891 6.28295898 C7.99845306 6.28154404 7.25227722 6.28012909 6.48348999 6.27867126 C4.11997322 6.27311147 1.75655414 6.26056663 -0.60693359 6.24780273 C-2.2176093 6.24278253 -3.82828651 6.23822054 -5.43896484 6.23413086 C-9.36999158 6.22315524 -13.30094607 6.20591869 -17.23193359 6.18530273 C-16.41943359 3.74780273 -16.41943359 3.74780273 -15.23193359 1.18530273 C-10.29452009 -0.46050177 -5.17046717 -0.0006307 0 0 Z " fill="#ECAA0F" transform="translate(200.23193359375,164.814697265625)"/>
<path d="M0 0 C1.09445938 0.00212242 1.09445938 0.00212242 2.21102905 0.00428772 C4.54437335 0.00989094 6.87762214 0.0224439 9.2109375 0.03515625 C10.79166528 0.04017084 12.37239457 0.04473382 13.953125 0.04882812 C17.83076604 0.05986141 21.70833557 0.07712814 25.5859375 0.09765625 C26.0809375 1.08765625 26.0809375 1.08765625 26.5859375 2.09765625 C21.99358769 4.7626946 18.72539427 5.45841852 13.4375 5.390625 C12.45141251 5.38425774 12.45141251 5.38425774 11.44540405 5.37776184 C9.36681359 5.36110602 7.28922976 5.32348245 5.2109375 5.28515625 C3.79298286 5.2700923 2.37501286 5.2564069 0.95703125 5.24414062 C-2.5003214 5.21124663 -5.95709353 5.1595579 -9.4140625 5.09765625 C-9.4140625 3.77765625 -9.4140625 2.45765625 -9.4140625 1.09765625 C-6.40193221 -0.4084089 -3.30123628 -0.02394706 0 0 Z " fill="#F79304" transform="translate(191.4140625,169.90234375)"/>
<path d="M0 0 C11.55 0 23.1 0 35 0 C35 4.29 35 8.58 35 13 C34.67 13 34.34 13 34 13 C34 9.04 34 5.08 34 1 C23.11 1 12.22 1 1 1 C1 4.96 1 8.92 1 13 C3.57161458 12.70703125 6.14322917 12.4140625 8.71484375 12.12109375 C9.46894531 12.08113281 10.22304688 12.04117188 11 12 C12 13 12 13 12.11352539 16.60180664 C12.11336625 18.20459856 12.10767063 19.8073956 12.09765625 21.41015625 C12.0962413 22.25219101 12.09482635 23.09422577 12.09336853 23.96177673 C12.08775263 26.66205335 12.07519748 29.36224828 12.0625 32.0625 C12.05748705 33.88867068 12.05292379 35.71484266 12.04882812 37.54101562 C12.03777804 42.02737542 12.02050279 46.51367384 12 51 C11.67 51 11.34 51 11 51 C11 38.79 11 26.58 11 14 C7.7 14 4.4 14 1 14 C0.67 15.32 0.34 16.64 0 18 C-1.32 16.35 -2.64 14.7 -4 13 C-2.68 13 -1.36 13 0 13 C0 8.71 0 4.42 0 0 Z " fill="#7FB4D3" transform="translate(273,185)"/>
<path d="M0 0 C0.87527344 -0.01417969 1.75054687 -0.02835938 2.65234375 -0.04296875 C5.0625 0.1875 5.0625 0.1875 8.0625 2.1875 C8.25 5.3125 8.25 5.3125 8.0625 8.1875 C5.31744537 9.56002731 3.05922588 9.31979255 0 9.3125 C-1.62615234 9.31636719 -1.62615234 9.31636719 -3.28515625 9.3203125 C-5.9375 9.1875 -5.9375 9.1875 -6.9375 8.1875 C-6.97842937 5.85452567 -6.97991723 3.52044775 -6.9375 1.1875 C-4.47380468 -0.04434766 -2.7480499 0.02017658 0 0 Z " fill="#1F7FB4" transform="translate(119.9375,196.8125)"/>
<path d="M0 0 C6.93 0 13.86 0 21 0 C21.33 1.65 21.66 3.3 22 5 C16.06 5 10.12 5 4 5 C4.66 3.68 5.32 2.36 6 1 C4.02 1 2.04 1 0 1 C0 0.67 0 0.34 0 0 Z " fill="#71ABCE" transform="translate(311,207)"/>
<path d="M0 0 C1.65322266 0.01740234 1.65322266 0.01740234 3.33984375 0.03515625 C4.99693359 0.04869141 4.99693359 0.04869141 6.6875 0.0625 C7.54214844 0.07410156 8.39679688 0.08570313 9.27734375 0.09765625 C9.27734375 1.74765625 9.27734375 3.39765625 9.27734375 5.09765625 C5.31734375 5.09765625 1.35734375 5.09765625 -2.72265625 5.09765625 C-3.05265625 3.77765625 -3.38265625 2.45765625 -3.72265625 1.09765625 C-2.72265625 0.09765625 -2.72265625 0.09765625 0 0 Z " fill="#4794C0" transform="translate(323.72265625,219.90234375)"/>
<path d="M0 0 C1.81242052 -0.02687279 3.62495233 -0.04633715 5.4375 -0.0625 C6.44683594 -0.07410156 7.45617187 -0.08570313 8.49609375 -0.09765625 C11 0 11 0 12 1 C12.20281522 4.18119432 12.34684901 7.35469227 12.4296875 10.54101562 C12.50413959 12.80356683 12.50413959 12.80356683 13 16 C13.99 16.66 14.98 17.32 16 18 C14.71937515 19.7074998 13.38232443 21.37373596 12 23 C11.34 23 10.68 23 10 23 C10 16.07 10 9.14 10 2 C6.7 1.67 3.4 1.34 0 1 C0 0.67 0 0.34 0 0 Z " fill="#62A1C9" transform="translate(387,185)"/>
<path d="M0 0 C0.886875 -0.01417969 1.77375 -0.02835938 2.6875 -0.04296875 C5 0.1875 5 0.1875 7 2.1875 C4.37684968 3.49907516 2.76966564 3.08399988 -0.125 2.75 C-1.03507812 2.64816406 -1.94515625 2.54632813 -2.8828125 2.44140625 C-3.58148438 2.35761719 -4.28015625 2.27382812 -5 2.1875 C-5 3.8375 -5 5.4875 -5 7.1875 C-1.37 7.5175 2.26 7.8475 6 8.1875 C6 8.5175 6 8.8475 6 9.1875 C4.02090602 9.21436553 2.04171029 9.23383375 0.0625 9.25 C-1.03964844 9.26160156 -2.14179687 9.27320313 -3.27734375 9.28515625 C-6 9.1875 -6 9.1875 -7 8.1875 C-7.04092937 5.85452567 -7.04241723 3.52044775 -7 1.1875 C-4.52224905 -0.05137548 -2.76346293 0.02008331 0 0 Z " fill="#85B8D6" transform="translate(120,196.8125)"/>
<path d="M0 0 C0.33 0 0.66 0 1 0 C1.33 6.93 1.66 13.86 2 21 C0.35 21.66 -1.3 22.32 -3 23 C-2.67854004 22.4337793 -2.35708008 21.86755859 -2.02587891 21.28417969 C-0.92710244 18.83768931 -0.69398432 17.11827998 -0.5859375 14.453125 C-0.54726562 13.60878906 -0.50859375 12.76445312 -0.46875 11.89453125 C-0.4378125 11.02183594 -0.406875 10.14914063 -0.375 9.25 C-0.33632812 8.36183594 -0.29765625 7.47367188 -0.2578125 6.55859375 C-0.16379127 4.3726002 -0.07813857 2.18660938 0 0 Z " fill="#559AC4" transform="translate(139,192)"/>
<path d="M0 0 C0.66 0.66 1.32 1.32 2 2 C-1.63 2 -5.26 2 -9 2 C-9.33 3.32 -9.66 4.64 -10 6 C-11.32 4.35 -12.64 2.7 -14 1 C-11.70954632 0.77872902 -9.41755236 0.5733496 -7.125 0.375 C-5.84882813 0.25898438 -4.57265625 0.14296875 -3.2578125 0.0234375 C-2.18273437 0.01570312 -1.10765625 0.00796875 0 0 Z " fill="#66A4CA" transform="translate(283,197)"/>
<path d="M0 0 C0.66 0.66 1.32 1.32 2 2 C0.01180815 4.98228777 -1.57646413 6.78519695 -5 8 C-5.66 7.67 -6.32 7.34 -7 7 C-7 6.34 -7 5.68 -7 5 C-6.030625 4.54625 -5.06125 4.0925 -4.0625 3.625 C-0.92920418 2.34213779 -0.92920418 2.34213779 0 0 Z " fill="#D7BC21" transform="translate(199,156)"/>
<path d="M0 0 C0.99 0.33 1.98 0.66 3 1 C2.67 4.3 2.34 7.6 2 11 C1.34 10.67 0.68 10.34 0 10 C0 6.7 0 3.4 0 0 Z " fill="#86B7D5" transform="translate(397,225)"/>
<path d="M0 0 C1.0625 1.875 1.0625 1.875 2 4 C1.67 4.66 1.34 5.32 1 6 C-1.0625 6.625 -1.0625 6.625 -3 7 C-2.25 2.25 -2.25 2.25 0 0 Z " fill="#C4B32F" transform="translate(189,158)"/>
</svg>
